<?xml version="1.0" standalone="no"?>
<!DOCTYPE svg PUBLIC "-//W3C//DTD SVG 20010904//EN"
 "http://www.w3.org/TR/2001/REC-SVG-20010904/DTD/svg10.dtd">
<svg version="1.0" xmlns="http://www.w3.org/2000/svg"
 width="700.000000pt" height="700.000000pt" viewBox="0 0 700.000000 700.000000"
 preserveAspectRatio="xMidYMid meet">
<metadata>
Created by potrace 1.11, written by Peter Selinger 2001-2013
</metadata>
<g transform="translate(0.000000,700.000000) scale(0.100000,-0.100000)"
fill="#000000" stroke="none">
<path d="M1578 5635 c-2 -2 -41 -5 -88 -8 -165 -12 -412 -68 -560 -126 -88
-36 -239 -119 -304 -169 -250 -191 -369 -438 -368 -763 1 -149 14 -237 54
-354 95 -276 337 -479 718 -604 98 -32 347 -95 416 -105 21 -3 50 -8 64 -11
33 -6 67 -12 180 -30 83 -14 307 -52 350 -60 208 -40 428 -122 547 -203 185
-126 257 -261 248 -467 -12 -269 -146 -440 -445 -568 -45 -20 -202 -63 -260
-72 -25 -4 -54 -9 -65 -11 -98 -19 -439 -26 -555 -12 -175 21 -413 88 -564
158 -55 26 -204 110 -226 127 -5 4 -5 7 -15 278 -4 99 -9 194 -10 210 -2 17
-3 37 -4 45 -1 13 -31 15 -218 15 l-217 0 -1 -380 0 -380 35 -35 c47 -47 136
-115 240 -183 87 -56 327 -177 353 -177 7 0 17 -3 21 -7 3 -4 12 -8 19 -9 7
-1 32 -9 56 -18 50 -18 223 -60 291 -71 25 -4 54 -9 65 -11 82 -15 317 -19
1235 -19 l1045 0 0 225 0 225 -242 5 -241 5 105 235 c109 244 125 282 128 290
1 3 15 35 32 72 17 37 34 76 38 88 6 20 7 20 1038 18 l1032 -3 97 -225 c130
-302 137 -318 160 -370 12 -25 27 -60 35 -78 l13 -32 -248 0 -248 0 0 -230 0
-230 710 2 711 3 1 215 c0 118 -2 221 -4 228 -3 9 -52 12 -197 12 -192 0 -194
0 -201 23 -4 12 -19 49 -34 82 -46 100 -403 906 -567 1280 -41 94 -86 194 -99
223 -13 29 -24 55 -24 57 0 2 -13 32 -29 67 -16 35 -66 146 -111 248 -45 102
-91 205 -102 230 -11 25 -60 135 -108 245 -48 110 -106 241 -128 290 -22 50
-101 227 -175 395 -74 168 -146 329 -160 359 l-25 54 -610 0 c-335 0 -613 -3
-618 -6 -5 -3 -9 -103 -8 -224 l1 -218 231 -3 232 -2 -24 -53 c-30 -67 -69
-153 -113 -247 -130 -277 -290 -626 -403 -875 -12 -27 -47 -103 -76 -168 -30
-65 -54 -120 -54 -122 0 -2 -21 -48 -46 -102 -25 -54 -52 -111 -59 -128 -7
-16 -25 -56 -40 -89 l-27 -58 -26 33 c-44 54 -140 141 -203 185 -62 43 -233
131 -310 159 -201 73 -415 125 -709 175 -373 62 -545 99 -690 147 -216 72
-367 177 -434 302 -120 225 -32 536 196 686 24 15 54 36 68 45 48 31 198 88
280 105 8 2 35 8 60 13 25 6 68 14 95 18 65 10 402 11 480 1 243 -30 438 -87
608 -174 56 -30 67 -40 68 -62 0 -14 2 -66 4 -116 9 -193 14 -332 15 -375 l0
-45 209 0 c116 0 212 3 215 5 2 3 6 176 7 384 l3 379 -35 29 c-194 163 -520
314 -784 363 -49 10 -97 18 -105 20 -8 1 -42 6 -75 9 -33 4 -78 10 -100 12
-40 6 -412 13 -417 9z m2965 -615 c14 -30 82 -190 152 -355 70 -165 133 -314
141 -332 8 -17 14 -34 14 -37 0 -3 13 -33 29 -68 16 -35 68 -157 116 -273 48
-115 93 -223 100 -240 57 -126 203 -481 199 -484 -6 -6 -1622 -7 -1638 -1 -12
5 31 111 158 390 53 117 404 899 521 1160 67 151 131 292 141 313 l18 39 13
-29 c7 -15 23 -53 36 -83z"/>
</g>
</svg>
